<svg xmlns="http://www.w3.org/2000/svg" width="119" height="27" fill="none"><path fill="#FBB618" d="M6.4 18c.8.8 1.1 1.5 1.1 2.3v.3a3.1 3.1 0 0 1-3 2.8c-1.3 0-2.2-.7-2.8-1.5L.2 20.2c-.3-.4-.3-1.2.3-1.7L3.4 16c.3-.2.8-.6 1.6-.6l.8.1h-.3c-.3 0-.6.2-.6.6 0 .1 0 .3.3.6L6.4 18zm8.9-7l.3.4.2.2.1.3c0 .4-.3.7-.6.7l-.3-.1.8.2c.6 0 1.4-.6 1.6-.7l3-2.5c.2-.2.4-.6.4-1l-.2-.7L20 7c-.6-1-1.6-1.5-2.7-1.5-1.7 0-3.2 1.3-3.1 2.9 0 1.2.6 2 1 2.6z"></path><path fill="#4F2E83" d="M17.4 20.9a3.2 3.2 0 0 1-4.5 0L2.4 10.5a3.1 3.1 0 0 1 0-4.4 3.2 3.2 0 0 1 4.4 0l10.6 10.4a3.1 3.1 0 0 1 0 4.4zM15 12.5l.2-.4-.6-.7c-.8-.9-1.2-1.9-1.3-3 0-.8.3-1.7 1-2.4a4 4 0 0 1 1.8-1l-4.1-4a3.2 3.2 0 0 0-4.5 0 3.1 3.1 0 0 0 0 4.3l7.1 7 .4.2zm-3 9.2l-6-6c-.1 0-.2-.2-.4-.1-.2 0-.2.3 0 .5 0 .2.3.3.4.5l.7.7.2.2c.9.9 1.3 1.8 1.3 2.8v.3A3.8 3.8 0 0 1 5.5 24l2.1 2a3.2 3.2 0 0 0 4.5 0 3.1 3.1 0 0 0 0-4.3z"></path><path fill="#FBB618" d="M6.4 18c.8.8 1.1 1.5 1.1 2.3v.3a3.1 3.1 0 0 1-3 2.8c-1.3 0-2.2-.7-2.8-1.5L.2 20.2c-.3-.4-.3-1.2.3-1.7L3.4 16c.3-.2.8-.6 1.6-.6l.8.1h-.3c-.3 0-.6.2-.6.6 0 .1 0 .3.3.6L6.4 18z"></path><path fill="#4F2E83" d="M17.4 20.9a3.1 3.1 0 0 0 0-4.4L6.8 6.1a3.2 3.2 0 0 0-4.4 0 3.1 3.1 0 0 0 0 4.4L12.9 21a3.2 3.2 0 0 0 4.5 0z"></path><path fill="#FBB618" d="M15.3 11l.3.4.2.2.1.3c0 .4-.3.7-.6.7l-.3-.1.8.2c.6 0 1.4-.6 1.6-.7l3-2.5c.2-.2.4-.6.4-1l-.2-.7L20 7c-.6-1-1.6-1.5-2.7-1.5-1.7 0-3.2 1.3-3.1 2.9 0 1.2.6 2 1 2.6z"></path><path fill="#4F2E83" d="M15 12.5c.2 0 .3-.2.3-.4l-.6-.7c-.8-.9-1.2-1.9-1.3-3 0-.8.3-1.7 1-2.4a4 4 0 0 1 1.8-1l-4.1-4a3.2 3.2 0 0 0-4.5 0 3.1 3.1 0 0 0 0 4.3l7.1 7 .4.2zM12 21.7l-6-6s-.1-.2-.3-.1c-.2 0-.2.3 0 .5 0 .2.3.3.4.5a39 39 0 0 0 .9.9c.9.9 1.3 1.8 1.3 2.8v.3A3.8 3.8 0 0 1 5.5 24l2.1 2a3.2 3.2 0 0 0 4.5 0 3.1 3.1 0 0 0 0-4.3z"></path><path fill="#FBB618" d="M86.3 19.6H80l-.2-.1V15l.2-.2h4.6c.6 0 1-.4 1-1 0-.7-.4-1.1-1-1.1H80s-.2 0-.2-.2V8l.2-.2h6.2c.5 0 1-.4 1-1 0-.7-.5-1.1-1-1.1h-7.5a1 1 0 0 0-1 1v14c0 .6.4 1 1 1h7.6c.6 0 1-.4 1-1s-.4-1-1-1zM98 10.3a1 1 0 0 0-1 1v.4c-1-.9-2.2-1.3-3.6-1.3-3 0-5.6 2.5-5.6 5.6 0 3.2 2.5 5.8 5.6 5.8 1.4 0 2.6-.5 3.5-1.3v.2c0 .6.5 1 1 1 .7 0 1.1-.4 1.1-1v-9.4c0-.6-.4-1-1-1zm-1 6.3a3.6 3.6 0 0 1-3.6 3 3.6 3.6 0 0 1 0-7.1c1.8 0 3.2 1.3 3.5 3v1zM113.5 10.3c-1.2 0-2.3.5-3.2 1.2v-.2c0-.6-.4-1-1-1a1 1 0 0 0-1 1v9.4c0 .6.4 1 1 1s1-.4 1-1v-5c0-1 .5-2 1.3-2.6.5-.4 1.2-.7 2-.7.7 0 1.5.3 2 .8.9.6 1.3 1.7 1.3 2.7v4.8c0 .6.5 1 1 1 .6 0 1.1-.4 1.1-1v-5c0-3-2.6-5.4-5.5-5.4zM105.4 10.5c-.8.2-1.5.5-2.3 1.3v-.5c0-.6-.5-1-1-1a1 1 0 0 0-1 1v9.4c0 .6.4 1 1 1 .5 0 1-.4 1-1V16c.2-1.6 1.1-3 2.5-3.4 0 0 1-.2 1.1-1.1 0-.7-.6-1.1-1.3-1z"></path><path fill="#4F2E83" d="M50.1 10.3h-.2a2 2 0 0 0-2 2V19.8c0 1.1 1 2 2 2h.2a2 2 0 0 0 2-2v-7.4c0-1.1-.9-2-2-2zM44.6 10.3h-.8v-.9c0-.5-.3-1-.7-1.4a2 2 0 0 0-1.4-.5 2 2 0 0 0-1.9 2v.7h-.3c-.8 0-1.5.7-1.5 1.5 0 .9.7 1.5 1.5 1.5h.3v3c0 1.2 0 2.2.4 3l.6 1.2v.1l.2.1.2.2a4.2 4.2 0 0 0 .8.6c1.2.6 2.7.6 3.3-.8.3-.7.1-1.3-.3-1.8l-.4-.3-.2-.1-.2-.3a3 3 0 0 1-.5-1.8v-3h1c.7 0 1.4-.7 1.4-1.5 0-.9-.6-1.5-1.5-1.5zM74.8 19l-3.4-4.2v-.3l2.8-2.7a1.6 1.6 0 0 0 0-2.3l-.1-.2-.4-.2-.2-.1-.6-.1c-.4 0-.8.1-1.1.4l-3 3h-.2l-.1-.1V7c0-1-.7-1.8-1.6-1.8h-.4c-.9 0-1.6.8-1.7 1.6V20c0 1 .7 1.7 1.7 1.7h.4c.9 0 1.6-.8 1.6-1.7v-2.6-.1l.1-.1h.1v-.1H69l3 4a1.7 1.7 0 0 0 2.3.2h.2c.3-.3.5-.7.6-1.1 0-.5 0-.9-.3-1.2zM62.6 18.7a1.6 1.6 0 0 0-1-.1c-.3 0-.6 0-.8.2l-.8.1h-.1c-1.1 0-2.4-.8-2.5-2.3v-.1c-.1-1.2 0-2 .6-2.5.6-.6 1.2-.9 2.1-.9h.1l.7.1.8.2c.3 0 .5 0 .7-.2.5-.2.8-.7.7-1.4-.1-.5-.5-.9-1-1.1-.7-.5-1.6-.6-1.9-.6h-.7l-1.4.1c-1 .2-1.8.7-2.6 1.4a5.7 5.7 0 0 0-1.8 4.3c0 2 .6 3.4 2 4.6.6.6 1.3 1 2.1 1.2.7.2 1.3.3 2.1.3h.2c1 0 2.2-.4 2.8-1.1.4-.4.5-1 .3-1.5-.1-.3-.3-.5-.6-.7zM51.2 5.8a2 2 0 0 0-1.2-.4 2 2 0 0 0-1.5.6 2 2 0 0 0-.6 1.5c0 .5.2 1 .6 1.4l.5.4a2 2 0 0 0 2.5-.4 2 2 0 0 0 0-2.9l-.3-.2zM37 14.5l-.2-.2v-.1h-.1a7.2 7.2 0 0 0-3.2-2l-1.6-.6a7 7 0 0 1-.6-.2c-.4-.3-.7-1-.4-1.5.7-1.3 2.6-.7 3.6-.5 1.5.4 2.7-1.2 2-2.3v-.2a2 2 0 0 0-.5-.4c-.8-.6-2-.7-2.9-.7h-.3A7 7 0 0 0 28.4 7c-1.2.9-1.8 2-1.8 3.5 0 .8.3 1.6.7 2.3l.1.1.4.4c.7.8 1.8 1.4 3.3 2a6.7 6.7 0 0 1 2 1c.5.5.4 1.4-.2 1.8-1.2.8-2.7 0-4-.1-.8-.1-1.6 0-2 .7-.3.6-.3 1.4.1 2l.2.1c.1.2.2.2.4.3.4.3.9.4 1.3.5.8.2 1.5.3 2.3.3 2.2 0 3.9-.5 5-1.6 1-1 1.5-2 1.5-3.4a4.3 4.3 0 0 0-.7-2.5z"></path></svg>