<svg width="156" height="76" viewBox="0 0 156 76" fill="none" xmlns="http://www.w3.org/2000/svg">
<g clip-path="url(#clip0)">
<path d="M122.809 33.5303C122.337 36.447 120.877 39.2781 118.466 41.0696C116.094 42.8341 113.055 43.4609 110.121 43.9999C106.602 44.647 103.073 45.2386 99.5351 45.7745C99.0335 45.8523 98.5316 45.9274 98.0293 46H77.4208C77.4 45.9729 77.378 45.9447 77.3572 45.9165C77.3236 45.8692 77.29 45.8218 77.2575 45.7745C77.239 45.7474 77.2205 45.7192 77.2019 45.691H90.1285C90.4954 45.6907 90.8471 45.5488 91.1065 45.2965C91.366 45.0441 91.5121 44.7019 91.5127 44.3449V27.5503C91.5961 27.2955 91.6737 27.0395 91.7444 26.7802C92.074 25.5727 92.2885 24.3382 92.3849 23.0923C92.4544 22.2242 92.4753 21.3561 92.4602 20.4868C92.4174 18.0977 92.0965 15.7086 91.7478 13.3365C91.7224 13.1617 91.6958 12.9858 91.6702 12.8111C91.4247 11.1627 91.2012 9.36895 92.0548 7.92468C93.0312 6.27183 95.1984 5.58296 97.1502 5.75207C100.661 6.05761 103.618 8.67444 105.155 11.7625C106.691 14.8495 107.035 18.3604 107.175 21.7879C107.249 23.6053 107.241 25.504 106.981 27.3271C107.861 25.3675 108.742 23.408 109.624 21.4485C110.094 20.4034 110.589 19.3244 111.46 18.56C113.281 16.9601 116.292 17.2826 118.237 18.7392C120.181 20.197 121.246 22.5004 121.955 24.7858C122.833 27.6123 123.281 30.6136 122.809 33.5303Z" fill="#B4BCD0"/>
<path d="M115.042 17.6882C116.315 19.8831 116.9 22.4001 116.886 24.9117C116.866 27.402 116.3 29.8594 115.226 32.1195C114.254 34.1603 112.9 36.0069 111.233 37.565C109.588 39.1195 107.637 40.3331 105.496 41.1323C103.012 42.0384 100.326 42.2869 97.711 41.8523C97.3478 41.7916 96.9872 41.7179 96.6293 41.6314C96.4122 41.5793 96.3196 41.9054 96.5369 41.9575C99.2578 42.614 102.111 42.5341 104.789 41.7265C107.019 41.0281 109.077 39.8886 110.833 38.3795C112.611 36.8663 114.082 35.0416 115.168 33.0002C116.357 30.7652 117.051 28.3122 117.204 25.7999C117.356 23.2505 116.917 20.6557 115.784 18.3431C115.647 18.0629 115.499 17.7877 115.342 17.5175C115.318 17.4804 115.28 17.4538 115.236 17.4434C115.193 17.433 115.146 17.4396 115.107 17.4617C115.069 17.4839 115.04 17.5199 115.028 17.5621C115.016 17.6044 115.021 17.6496 115.042 17.6882H115.042Z" fill="white"/>
<path d="M96.601 5.70733C98.0127 8.2404 99.1129 10.9266 99.8787 13.7103C101.412 19.2857 101.643 25.1245 100.554 30.798C100.011 33.6327 99.125 36.3948 97.9146 39.0267C96.7078 41.6364 94.9703 44.3862 92.0024 45.2999C91.6675 45.4026 91.3242 45.4773 90.9762 45.5232C90.7556 45.5527 90.8495 45.8786 91.0686 45.8494C94.1386 45.4392 96.2719 42.9566 97.6097 40.4259C98.994 37.8074 99.9797 34.9639 100.635 32.093C101.934 26.3647 101.888 20.4248 100.499 14.7165C99.8085 11.8728 98.7771 9.11806 97.4257 6.50899C97.2559 6.18226 97.081 5.85813 96.901 5.53662C96.7941 5.34534 96.494 5.51587 96.601 5.70733V5.70733Z" fill="white"/>
<path d="M82.0702 5.21545H61.2672C60.8449 5.21598 60.4401 5.37948 60.1416 5.6701C59.843 5.96071 59.675 6.35472 59.6745 6.7657V16.9117H62.8761C63.1102 16.9111 63.3407 16.9686 63.5456 17.0789C63.7505 17.1892 63.9231 17.3486 64.0471 17.5419L65.1567 19.2613L66.2178 20.904L66.417 21.2129L67.6309 23.0924L67.6448 23.1138H83.6629V6.7657C83.6624 6.35471 83.4944 5.96071 83.1958 5.6701C82.8973 5.37949 82.4925 5.21599 82.0702 5.21545Z" fill="#B4BCD0"/>
<path d="M73.8243 8.31702H63.5166C63.2433 8.31702 62.9813 8.42268 62.788 8.61075C62.5948 8.79883 62.4863 9.05391 62.4863 9.31989C62.4863 9.58587 62.5948 9.84095 62.788 10.029C62.9813 10.2171 63.2433 10.3228 63.5166 10.3228H73.8243C74.0976 10.3228 74.3596 10.2171 74.5529 10.029C74.7461 9.84095 74.8546 9.58587 74.8546 9.31989C74.8546 9.05391 74.7461 8.79883 74.5529 8.61075C74.3596 8.42268 74.0976 8.31702 73.8243 8.31702Z" fill="white"/>
<path d="M79.5405 13.2418H63.6104C63.3121 13.2418 63.0261 13.3572 62.8151 13.5625C62.6042 13.7678 62.4857 14.0462 62.4857 14.3366C62.4857 14.6269 62.6042 14.9054 62.8151 15.1107C63.0261 15.316 63.3121 15.4313 63.6104 15.4313H79.5405C79.8388 15.4313 80.1249 15.316 80.3358 15.1107C80.5467 14.9054 80.6652 14.6269 80.6652 14.3366C80.6652 14.0462 80.5467 13.7678 80.3358 13.5625C80.1249 13.3572 79.8388 13.2418 79.5405 13.2418Z" fill="white"/>
<path d="M80.5575 17.7031C80.467 17.5149 80.3233 17.3557 80.1431 17.2441C79.963 17.1324 79.754 17.0731 79.5405 17.0729H63.6104C63.5861 17.0729 63.5629 17.074 63.5386 17.0751C63.7464 17.1857 63.9215 17.3464 64.0471 17.5419L65.1567 19.2613H79.5405C79.7296 19.2613 79.9157 19.2149 80.0815 19.1262C80.2473 19.0376 80.3874 18.9096 80.4889 18.7542C80.5903 18.5988 80.6498 18.421 80.6618 18.2372C80.6738 18.0535 80.6379 17.8698 80.5575 17.7031Z" fill="white"/>
<path d="M80.6536 21.851C80.617 21.5889 80.4841 21.3485 80.2794 21.1744C80.0748 21.0003 79.8123 20.9042 79.5405 20.9039H66.2178L66.417 21.2129L67.6309 23.0923H79.5405C79.7745 23.0928 80.0027 23.0214 80.1926 22.8882C80.3385 22.7871 80.4573 22.6535 80.5393 22.4986C80.6213 22.3436 80.6641 22.1718 80.6641 21.9976C80.6641 21.9485 80.6607 21.8995 80.6536 21.851Z" fill="white"/>
<path d="M93.3695 13.9532L91.7478 13.3365L83.6629 10.2653L73.9899 6.59092C73.5962 6.44219 73.158 6.45148 72.7713 6.61675C72.3846 6.78202 72.081 7.08979 71.927 7.47259L71.5888 8.31705L70.7838 10.3228L69.6139 13.2418L68.7359 15.4313L68.078 17.0729L67.2 19.2613L66.5409 20.9039L66.5224 20.9513L66.417 21.2129L67.6309 23.0923L67.6448 23.1138H90.1285C90.3349 23.1136 90.5388 23.1585 90.725 23.2451C90.9112 23.3317 91.0751 23.4579 91.2046 23.6144L91.2996 23.3798L92.4602 20.4868L94.2741 15.9623C94.4272 15.5791 94.418 15.1524 94.2484 14.7758C94.0788 14.3991 93.7628 14.1033 93.3695 13.9532Z" fill="#70748A"/>
<path d="M84.5293 13.9239L83.6629 13.5947L74.927 10.2766C74.6723 10.1806 74.3889 10.1867 74.1387 10.2933C73.8884 10.4 73.6917 10.5987 73.5915 10.846C73.4927 11.0941 73.499 11.3701 73.6088 11.6137C73.7186 11.8573 73.9231 12.0487 74.1776 12.1459L77.0629 13.2418L80.6316 14.597L83.6629 15.7493L83.7799 15.7932C84.0344 15.8894 84.3178 15.8834 84.5678 15.7764C84.8177 15.6694 85.0139 15.4703 85.1132 15.2227C85.2124 14.9751 85.2067 14.6993 85.0972 14.4558C84.9878 14.2123 84.7835 14.021 84.5293 13.9239Z" fill="white"/>
<path d="M88.0135 20.5353L83.6629 18.8824L80.5575 17.7031L78.8988 17.0728L74.5783 15.4313L73.1745 14.898C72.9126 14.7984 72.6219 14.798 72.3597 14.8967C72.0975 14.9954 71.8828 15.1861 71.7579 15.4313C71.744 15.4594 71.7301 15.4888 71.7185 15.5192C71.6648 15.653 71.6387 15.7959 71.6417 15.9395C71.6447 16.0832 71.6768 16.2249 71.736 16.3565C71.7953 16.4881 71.8806 16.607 71.9871 16.7066C72.0936 16.8061 72.2192 16.8842 72.3568 16.9364L72.7158 17.0728L78.4749 19.2612L83.6629 21.232L87.1957 22.5748C87.3257 22.6242 87.464 22.6495 87.6035 22.6492C87.8658 22.6497 88.12 22.5608 88.3221 22.3981C88.5242 22.2353 88.6615 22.0089 88.7102 21.7579C88.7588 21.507 88.7158 21.2475 88.5886 21.0242C88.4614 20.8009 88.2579 20.6279 88.0135 20.5353H88.0135Z" fill="white"/>
<path d="M83.6629 22.9943L83.3838 22.8883L80.6537 21.8511L78.1598 20.904L73.8347 19.2613L71.7428 18.4665C71.6052 18.4141 71.4583 18.3886 71.3106 18.3915C71.1628 18.3943 71.0171 18.4256 70.8817 18.4833C70.7464 18.5411 70.624 18.6242 70.5217 18.728C70.4194 18.8318 70.3391 18.9543 70.2855 19.0883C70.2318 19.2223 70.2058 19.3654 70.209 19.5092C70.2122 19.653 70.2444 19.7948 70.3039 19.9265C70.3635 20.0581 70.449 20.1771 70.5558 20.2765C70.6626 20.376 70.7885 20.454 70.9263 20.506L71.9734 20.904L77.1973 22.8883L77.7347 23.0924L77.7903 23.1138H83.9768L83.6629 22.9943Z" fill="white"/>
<path d="M73.0957 23.0923L72.5583 22.8882L70.3123 22.0348C70.1554 21.9749 69.9867 21.9503 69.8186 21.9625C69.6506 21.9748 69.4876 22.0238 69.3416 22.1058C69.1956 22.1877 69.0705 22.3006 68.9755 22.4361C68.8804 22.5715 68.8179 22.7261 68.7926 22.8882C68.7815 22.9557 68.7772 23.024 68.7799 23.0923C68.7797 23.0995 68.7801 23.1066 68.7811 23.1137H73.1525L73.0957 23.0923Z" fill="white"/>
<path d="M77.7347 23.0924L77.1972 22.8883H68.7926C68.7815 22.9557 68.7772 23.0241 68.7799 23.0924H67.6308L67.6447 23.1138H77.7903L77.7347 23.0924ZM77.7347 23.0924H67.6308L67.6447 23.1138H77.7903L77.7347 23.0924ZM77.7347 23.0924H67.6308L67.6447 23.1138H77.7903L77.7347 23.0924ZM77.7903 23.1138L77.7347 23.0924H67.6308L67.6447 23.1138H77.7903ZM57.5189 45.6911C57.1523 45.6905 56.8008 45.5485 56.5416 45.2962C56.2823 45.0438 56.1365 44.7017 56.1359 44.3449V18.259C56.1362 17.9019 56.282 17.5596 56.5412 17.307C56.8005 17.0544 57.1521 16.9123 57.5189 16.9116H59.6745V16.6862H57.5189C57.0907 16.6869 56.6803 16.8529 56.3776 17.1478C56.075 17.4426 55.9047 17.8422 55.9042 18.259V44.3449C55.9046 44.6464 55.994 44.9415 56.1618 45.1949C56.3296 45.4484 56.5686 45.6496 56.8506 45.7745H77.2575C77.239 45.7474 77.2204 45.7192 77.2019 45.6911H57.5189ZM91.2995 23.3799C91.1491 23.2245 90.9676 23.1007 90.7662 23.0162C90.5648 22.9317 90.3478 22.8881 90.1285 22.8883H67.7733L66.5224 20.9513L66.4922 20.904L65.4313 19.2613L64.2428 17.4213C64.0972 17.1965 63.8955 17.0112 63.6565 16.8827C63.4175 16.7542 63.1491 16.6866 62.876 16.6862H57.5189C57.0907 16.6869 56.6803 16.8529 56.3776 17.1478C56.075 17.4426 55.9047 17.8422 55.9042 18.259V44.3449C55.9046 44.6464 55.994 44.9415 56.1618 45.1949C56.3296 45.4484 56.5686 45.6496 56.8506 45.7745C57.0601 45.8684 57.2882 45.9169 57.5189 45.9166H90.1285C90.3596 45.9169 90.588 45.8684 90.798 45.7745C91.0799 45.6496 91.319 45.4484 91.4868 45.1949C91.6546 44.9415 91.744 44.6464 91.7443 44.3449V24.4611C91.7446 24.0584 91.5853 23.6711 91.2995 23.3799ZM91.5127 44.3449C91.5121 44.7019 91.366 45.0441 91.1065 45.2965C90.847 45.5489 90.4953 45.6907 90.1285 45.6911H57.5189C57.1523 45.6905 56.8008 45.5485 56.5416 45.2962C56.2823 45.0438 56.1365 44.7017 56.1359 44.3449V18.259C56.1362 17.9019 56.282 17.5596 56.5412 17.307C56.8005 17.0544 57.1521 16.9123 57.5189 16.9116H62.876C63.1102 16.911 63.3406 16.9686 63.5456 17.0789C63.7505 17.1892 63.9231 17.3485 64.0471 17.5419L65.1567 19.2613L66.2177 20.904L66.4169 21.2129L67.6308 23.0924L67.6448 23.1138H90.1285C90.4955 23.1141 90.8474 23.2561 91.1069 23.5087C91.3664 23.7613 91.5124 24.1038 91.5127 24.4611V44.3449ZM77.7347 23.0924H67.6308L67.6447 23.1138H77.7903L77.7347 23.0924ZM77.7347 23.0924H67.6308L67.6447 23.1138H77.7903L77.7347 23.0924ZM77.7347 23.0924H67.6308L67.6447 23.1138H77.7903L77.7347 23.0924ZM77.7347 23.0924L77.1972 22.8883H67.7733L66.5224 20.9513L66.4169 21.2129L67.6308 23.0924L67.6448 23.1138H77.7903L77.7347 23.0924Z" fill="#70748A"/>
<path d="M51.177 32.4447L50.5135 33.795L44.8475 31.9466L45.8266 29.9539L51.177 32.4447Z" fill="#B4BCD0"/>
<path d="M49.5817 34.7003L50.9228 31.971L52.6072 32.7552L50.522 36.9987L50.3932 36.9387C49.9807 36.7466 49.6634 36.4029 49.5112 35.9831C49.359 35.5633 49.3843 35.1019 49.5817 34.7003Z" fill="#70748A"/>
<path d="M52.5126 44.5023L50.9759 44.4518L50.9111 38.6292L52.7126 38.7327L52.5126 44.5023Z" fill="#B4BCD0"/>
<path d="M49.7503 43.9837L52.8567 44.0858L52.7937 45.9022L47.9639 45.7435L47.9688 45.6046C47.9842 45.1597 48.1805 44.739 48.5146 44.435C48.8487 44.1311 49.2932 43.9687 49.7503 43.9837Z" fill="#70748A"/>
<path d="M54.9874 20.134C54.9874 20.134 50.2841 18.9742 48.1519 20.6833L46.9604 24.0406L42.1945 30.6329L49.0926 34.6616L50.3468 31.6096L47.3367 30.1446L50.9739 27.0926L50.3468 43.2072L52.7298 43.5735C52.7298 43.5735 57.9975 23.6743 54.9874 20.134Z" fill="#70748A"/>
<path d="M47.8518 21.1799L47.9091 21.0807C48.5134 20.035 48.4155 18.3322 48.227 17.0879C48.0691 16.0457 48.0738 14.209 48.1056 12.8517C48.1134 12.3935 48.2813 11.9516 48.5815 11.5987C48.8818 11.2458 49.2965 11.0029 49.7575 10.9101C51.1883 10.6202 52.9448 10.5588 53.8645 10.548L53.8653 10.609L53.8645 10.548C54.1144 10.547 54.3547 10.6414 54.5339 10.8109C54.7131 10.9805 54.8169 11.2116 54.8231 11.4548C54.8511 12.9164 54.8424 15.5818 54.4697 17.0118C53.9166 19.1343 54.7815 20.5766 54.7903 20.5909L54.8425 20.6758L47.8518 21.1799Z" fill="#70748A"/>
<path d="M45.4325 27.0333C45.5856 26.962 45.7208 26.8588 45.8285 26.7311C45.9362 26.6034 46.0138 26.4542 46.0559 26.2941C46.098 26.134 46.1035 25.9669 46.072 25.8046C46.0406 25.6422 45.9729 25.4885 45.8739 25.3543L48.5282 14.213H46.5215L44.1789 25.1347C43.9583 25.3117 43.8121 25.5612 43.768 25.8361C43.7238 26.1109 43.7848 26.392 43.9393 26.626C44.0938 26.86 44.3312 27.0308 44.6064 27.1058C44.8816 27.1809 45.1755 27.1551 45.4325 27.0333Z" fill="#B4BCD0"/>
<path d="M61.5719 16.0664L57.1423 11.9878L55.9451 13.6192L58.9381 16.1829L55.0129 19.217C54.9846 19.2151 54.9564 19.2128 54.9275 19.2128C54.6859 19.2125 54.4494 19.28 54.2463 19.4072C54.0431 19.5344 53.8819 19.7158 53.7819 19.9299C53.682 20.1439 53.6474 20.3814 53.6825 20.614C53.7176 20.8466 53.8208 21.0645 53.9797 21.2415C54.1386 21.4185 54.3466 21.5473 54.5787 21.6122C54.8109 21.6772 55.0573 21.6758 55.2886 21.608C55.5199 21.5402 55.7262 21.409 55.8829 21.2301C56.0396 21.0512 56.14 20.8321 56.1721 20.5991L56.1845 20.6111L61.5719 16.0664Z" fill="#B4BCD0"/>
<path d="M49.4758 11.0533C49.4758 11.0533 46.7096 10.6117 46.4588 12.687C46.2079 14.7624 46.0825 14.7624 46.0825 14.7624C46.0825 14.7624 48.0893 14.3962 48.5909 14.8845C49.0926 15.3728 49.4758 11.0533 49.4758 11.0533Z" fill="#70748A"/>
<path d="M53.6077 10.7338C53.6077 10.7338 55.8653 10.3675 56.8687 11.3442C57.872 12.3208 58.3737 12.565 58.3737 12.565C58.3737 12.565 56.1161 13.7858 56.9941 14.8845C56.9941 14.8845 54.6111 13.7858 54.2348 14.152C53.8586 14.5183 53.6077 10.7338 53.6077 10.7338Z" fill="#70748A"/>
<path d="M51.6276 3.646C50.9155 3.09242 50.7284 2.02401 51.1416 1.23333C51.5547 0.44265 52.4889 -0.0337122 53.3995 0.00186244C54.3101 0.037437 55.1682 0.54632 55.6957 1.26967C56.4368 2.28577 56.5923 3.69802 57.5777 4.49351C58.4678 5.21201 59.7428 5.19143 60.8976 5.13427C61.2868 5.115 61.6887 5.09267 62.038 4.92432C62.3873 4.75597 62.6727 4.40091 62.6277 4.02406C62.9178 4.47108 62.7495 5.09785 62.3602 5.46668C61.971 5.83552 61.4168 5.99005 60.8773 6.05158C59.9254 6.14896 58.964 6.00333 58.0875 5.62903C57.2111 5.25473 56.45 4.66467 55.8791 3.91697C55.4773 3.37744 55.1672 2.74917 54.6158 2.35415C54.0645 1.95912 53.1452 1.93163 52.8067 2.51086C52.6393 2.79735 52.6557 3.1567 52.5018 3.45025C52.3478 3.7438 51.8479 3.90208 51.6997 3.60576" fill="#70748A"/>
<path d="M51.5188 9.53329C53.4379 9.53329 54.9937 8.01895 54.9937 6.15092C54.9937 4.28289 53.4379 2.76855 51.5188 2.76855C49.5997 2.76855 48.0439 4.28289 48.0439 6.15092C48.0439 8.01895 49.5997 9.53329 51.5188 9.53329Z" fill="#70748A"/>
<path d="M51.4978 9.79806C53.069 9.79806 54.3427 8.55827 54.3427 7.02891C54.3427 5.49955 53.069 4.25977 51.4978 4.25977C49.9266 4.25977 48.6529 5.49955 48.6529 7.02891C48.6529 8.55827 49.9266 9.79806 51.4978 9.79806Z" fill="#B4BCD0"/>
<path d="M48.9037 4.99516C49.2904 5.07748 49.1639 5.7088 49.4694 5.95368C49.745 6.17458 50.1419 5.94741 50.4888 5.86517C50.9267 5.76134 51.3851 5.91344 51.7894 6.10734C52.1937 6.30125 52.5836 6.54189 53.0246 6.63223C53.4657 6.72256 53.9886 6.62074 54.2359 6.25392C54.4723 5.90318 54.3853 5.43019 54.2003 5.05129C53.9704 4.58019 53.6094 4.18118 53.1585 3.89949C52.7075 3.61779 52.1845 3.46465 51.6487 3.45742C51.1129 3.45019 50.5857 3.58917 50.1269 3.85859C49.668 4.12802 49.2959 4.51713 49.0526 4.98185" fill="#70748A"/>
<path d="M115.934 45.8873C115.934 45.9172 115.922 45.9458 115.9 45.9669C115.879 45.988 115.849 45.9999 115.818 46H33.1158C33.0851 46 33.0556 45.9882 33.0339 45.967C33.0122 45.9459 33 45.9172 33 45.8873C33 45.8574 33.0122 45.8287 33.0339 45.8076C33.0556 45.7864 33.0851 45.7745 33.1158 45.7745H115.818C115.849 45.7746 115.879 45.7865 115.9 45.8077C115.922 45.8288 115.934 45.8574 115.934 45.8873Z" fill="#70748A"/>
</g>
<path fill-rule="evenodd" clip-rule="evenodd" d="M8.50002 59.6666C8.86821 59.6666 9.16669 59.9651 9.16669 60.3333V64.3333H13.1667C13.5349 64.3333 13.8334 64.6318 13.8334 65C13.8334 65.3681 13.5349 65.6666 13.1667 65.6666H9.16669V69.6666C9.16669 70.0348 8.86821 70.3333 8.50002 70.3333C8.13183 70.3333 7.83335 70.0348 7.83335 69.6666V65.6666H3.83335C3.46516 65.6666 3.16669 65.3681 3.16669 65C3.16669 64.6318 3.46516 64.3333 3.83335 64.3333H7.83335V60.3333C7.83335 59.9651 8.13183 59.6666 8.50002 59.6666Z" fill="#B4BCD0"/>
<path d="M21.48 70H24.742C24.8213 70 24.9847 69.9977 25.232 69.993C25.4793 69.9883 25.7173 69.972 25.946 69.944C26.758 69.846 27.4463 69.5637 28.011 69.097C28.5757 68.6303 29.005 68.0377 29.299 67.319C29.593 66.6003 29.74 65.814 29.74 64.96C29.74 64.106 29.593 63.3197 29.299 62.601C29.005 61.8823 28.5757 61.2897 28.011 60.823C27.4463 60.3563 26.758 60.074 25.946 59.976C25.7173 59.948 25.4793 59.9317 25.232 59.927C24.9847 59.9223 24.8213 59.92 24.742 59.92H21.48V70ZM23.412 68.208V61.712H24.742C24.868 61.712 25.0383 61.7143 25.253 61.719C25.4677 61.7237 25.6613 61.7447 25.834 61.782C26.2587 61.866 26.611 62.0643 26.891 62.377C27.171 62.6897 27.3787 63.0723 27.514 63.525C27.654 63.9777 27.724 64.456 27.724 64.96C27.724 65.4407 27.6563 65.9073 27.521 66.36C27.3903 66.8127 27.185 67.2 26.905 67.522C26.6297 67.844 26.2727 68.0493 25.834 68.138C25.6613 68.1707 25.4677 68.1917 25.253 68.201C25.0383 68.2057 24.868 68.208 24.742 68.208H23.412ZM31.6995 70H33.6175V66.136C33.6175 65.2587 33.9628 64.6613 34.6535 64.344C34.8775 64.2367 35.1271 64.1737 35.4025 64.155C35.6825 64.1317 35.9275 64.1527 36.1375 64.218V62.44C35.7968 62.398 35.4561 62.4073 35.1155 62.468C34.7748 62.524 34.4668 62.636 34.1915 62.804C34.0141 62.9067 33.8578 63.0303 33.7225 63.175C33.5918 63.3197 33.4775 63.4807 33.3795 63.658V62.44H31.6995V70ZM41.0143 70.21C41.7703 70.21 42.4353 70.042 43.0093 69.706C43.5879 69.3653 44.0383 68.8963 44.3603 68.299C44.6869 67.697 44.8503 67.004 44.8503 66.22C44.8503 65.4407 44.6893 64.7523 44.3673 64.155C44.0453 63.553 43.5949 63.0817 43.0163 62.741C42.4423 62.4003 41.7749 62.23 41.0143 62.23C40.2676 62.23 39.6073 62.398 39.0333 62.734C38.4593 63.07 38.0089 63.539 37.6823 64.141C37.3556 64.7383 37.1923 65.4313 37.1923 66.22C37.1923 66.9993 37.3509 67.69 37.6683 68.292C37.9903 68.8893 38.4383 69.3583 39.0123 69.699C39.5863 70.0397 40.2536 70.21 41.0143 70.21ZM41.0143 68.432C40.4216 68.432 39.9713 68.2337 39.6633 67.837C39.3599 67.4357 39.2083 66.8967 39.2083 66.22C39.2083 65.562 39.3529 65.03 39.6423 64.624C39.9363 64.2133 40.3936 64.008 41.0143 64.008C41.6163 64.008 42.0689 64.2087 42.3723 64.61C42.6803 65.0113 42.8343 65.548 42.8343 66.22C42.8343 66.8687 42.6826 67.4007 42.3793 67.816C42.0806 68.2267 41.6256 68.432 41.0143 68.432ZM46.6556 73.36H48.5736V69.727C48.8209 69.881 49.0939 70 49.3926 70.084C49.6959 70.168 50.0249 70.21 50.3796 70.21C51.0749 70.21 51.6839 70.035 52.2066 69.685C52.7293 69.335 53.1353 68.859 53.4246 68.257C53.7186 67.655 53.8656 66.976 53.8656 66.22C53.8656 65.45 53.7163 64.7663 53.4176 64.169C53.1236 63.567 52.7083 63.0933 52.1716 62.748C51.6349 62.4027 51.0049 62.23 50.2816 62.23C49.8896 62.23 49.5303 62.286 49.2036 62.398C48.8816 62.5053 48.5923 62.6593 48.3356 62.86V62.44H46.6556V73.36ZM50.0716 68.516C49.4369 68.516 48.9889 68.306 48.7276 67.886C48.4663 67.4613 48.3356 66.906 48.3356 66.22C48.3356 65.534 48.4639 64.981 48.7206 64.561C48.9819 64.1363 49.4089 63.924 50.0016 63.924C50.4263 63.924 50.7739 64.029 51.0446 64.239C51.3199 64.4443 51.5229 64.722 51.6536 65.072C51.7843 65.4173 51.8496 65.8 51.8496 66.22C51.8496 66.6447 51.7866 67.032 51.6606 67.382C51.5346 67.7273 51.3409 68.0027 51.0796 68.208C50.8183 68.4133 50.4823 68.516 50.0716 68.516ZM61.2327 70H63.1647V65.898L66.6087 59.92H64.3827L62.1987 63.714L60.0147 59.92H57.7887L61.2327 65.898V70ZM70.1479 70.21C70.9039 70.21 71.5689 70.042 72.1429 69.706C72.7216 69.3653 73.1719 68.8963 73.4939 68.299C73.8206 67.697 73.9839 67.004 73.9839 66.22C73.9839 65.4407 73.8229 64.7523 73.5009 64.155C73.1789 63.553 72.7286 63.0817 72.1499 62.741C71.5759 62.4003 70.9086 62.23 70.1479 62.23C69.4013 62.23 68.7409 62.398 68.1669 62.734C67.5929 63.07 67.1426 63.539 66.8159 64.141C66.4893 64.7383 66.3259 65.4313 66.3259 66.22C66.3259 66.9993 66.4846 67.69 66.8019 68.292C67.1239 68.8893 67.5719 69.3583 68.1459 69.699C68.7199 70.0397 69.3873 70.21 70.1479 70.21ZM70.1479 68.432C69.5553 68.432 69.1049 68.2337 68.7969 67.837C68.4936 67.4357 68.3419 66.8967 68.3419 66.22C68.3419 65.562 68.4866 65.03 68.7759 64.624C69.0699 64.2133 69.5273 64.008 70.1479 64.008C70.7499 64.008 71.2026 64.2087 71.5059 64.61C71.8139 65.0113 71.9679 65.548 71.9679 66.22C71.9679 66.8687 71.8163 67.4007 71.5129 67.816C71.2143 68.2267 70.7593 68.432 70.1479 68.432ZM78.6173 70.224C79.1633 70.224 79.6393 70.133 80.0453 69.951C80.4513 69.769 80.7919 69.5263 81.0673 69.223V70H82.7473V62.44H80.8293V66.276C80.8293 66.7427 80.7756 67.1207 80.6683 67.41C80.5656 67.6947 80.4326 67.9117 80.2693 68.061C80.1059 68.2057 79.9309 68.3037 79.7443 68.355C79.5576 68.4063 79.3826 68.432 79.2193 68.432C78.8133 68.432 78.4983 68.341 78.2743 68.159C78.0549 67.977 77.8963 67.7507 77.7983 67.48C77.7003 67.2093 77.6419 66.941 77.6233 66.675C77.6046 66.4043 77.5953 66.1827 77.5953 66.01V62.44H75.6633V66.682C75.6633 66.808 75.6726 67.0087 75.6913 67.284C75.7099 67.5593 75.7636 67.865 75.8523 68.201C75.9409 68.5323 76.0879 68.852 76.2933 69.16C76.5033 69.468 76.7949 69.7223 77.1683 69.923C77.5416 70.1237 78.0246 70.224 78.6173 70.224ZM84.9837 70H86.9017V66.136C86.9017 65.2587 87.247 64.6613 87.9377 64.344C88.1617 64.2367 88.4113 64.1737 88.6867 64.155C88.9667 64.1317 89.2117 64.1527 89.4217 64.218V62.44C89.081 62.398 88.7403 62.4073 88.3997 62.468C88.059 62.524 87.751 62.636 87.4757 62.804C87.2983 62.9067 87.142 63.0303 87.0067 63.175C86.876 63.3197 86.7617 63.4807 86.6637 63.658V62.44H84.9837V70ZM94.1159 70H96.0199V65.912H99.4359V64.008H96.0199V61.824H100.276V59.92H94.1159V70ZM101.96 61.39H103.864V59.71H101.96V61.39ZM101.96 70H103.864V62.44H101.96V70ZM106.382 70H108.286V59.71H106.382V70ZM114.179 70.21C114.907 70.21 115.577 70.0187 116.188 69.636C116.804 69.2533 117.254 68.7167 117.539 68.026L115.635 67.48C115.346 68.1147 114.823 68.432 114.067 68.432C113.549 68.432 113.141 68.2873 112.842 67.998C112.548 67.7087 112.366 67.2933 112.296 66.752H117.602C117.681 65.8373 117.588 65.0417 117.322 64.365C117.056 63.6883 116.645 63.1633 116.09 62.79C115.535 62.4167 114.86 62.23 114.067 62.23C113.32 62.23 112.66 62.4003 112.086 62.741C111.512 63.077 111.062 63.5507 110.735 64.162C110.408 64.7733 110.245 65.492 110.245 66.318C110.245 67.074 110.411 67.746 110.742 68.334C111.078 68.9173 111.54 69.377 112.128 69.713C112.721 70.0443 113.404 70.21 114.179 70.21ZM114.151 63.882C114.608 63.882 114.958 63.9963 115.201 64.225C115.448 64.4537 115.607 64.8247 115.677 65.338H112.345C112.546 64.3673 113.148 63.882 114.151 63.882ZM122.545 70H124.449V65.842H128.957V70H130.861V59.92H128.957V64.064H124.449V59.92H122.545V70ZM136.62 70.21C137.348 70.21 138.018 70.0187 138.629 69.636C139.245 69.2533 139.696 68.7167 139.98 68.026L138.076 67.48C137.787 68.1147 137.264 68.432 136.508 68.432C135.99 68.432 135.582 68.2873 135.283 67.998C134.989 67.7087 134.807 67.2933 134.737 66.752H140.043C140.123 65.8373 140.029 65.0417 139.763 64.365C139.497 63.6883 139.087 63.1633 138.531 62.79C137.976 62.4167 137.302 62.23 136.508 62.23C135.762 62.23 135.101 62.4003 134.527 62.741C133.953 63.077 133.503 63.5507 133.176 64.162C132.85 64.7733 132.686 65.492 132.686 66.318C132.686 67.074 132.852 67.746 133.183 68.334C133.519 68.9173 133.981 69.377 134.569 69.713C135.162 70.0443 135.846 70.21 136.62 70.21ZM136.592 63.882C137.05 63.882 137.4 63.9963 137.642 64.225C137.89 64.4537 138.048 64.8247 138.118 65.338H134.786C134.987 64.3673 135.589 63.882 136.592 63.882ZM141.904 70H143.822V66.136C143.822 65.2587 144.167 64.6613 144.858 64.344C145.082 64.2367 145.332 64.1737 145.607 64.155C145.887 64.1317 146.132 64.1527 146.342 64.218V62.44C146.001 62.398 145.661 62.4073 145.32 62.468C144.979 62.524 144.671 62.636 144.396 62.804C144.219 62.9067 144.062 63.0303 143.927 63.175C143.796 63.3197 143.682 63.4807 143.584 63.658V62.44H141.904V70ZM151.331 70.21C152.059 70.21 152.729 70.0187 153.34 69.636C153.956 69.2533 154.406 68.7167 154.691 68.026L152.787 67.48C152.498 68.1147 151.975 68.432 151.219 68.432C150.701 68.432 150.293 68.2873 149.994 67.998C149.7 67.7087 149.518 67.2933 149.448 66.752H154.754C154.833 65.8373 154.74 65.0417 154.474 64.365C154.208 63.6883 153.797 63.1633 153.242 62.79C152.687 62.4167 152.012 62.23 151.219 62.23C150.472 62.23 149.812 62.4003 149.238 62.741C148.664 63.077 148.214 63.5507 147.887 64.162C147.56 64.7733 147.397 65.492 147.397 66.318C147.397 67.074 147.563 67.746 147.894 68.334C148.23 68.9173 148.692 69.377 149.28 69.713C149.873 70.0443 150.556 70.21 151.331 70.21ZM151.303 63.882C151.76 63.882 152.11 63.9963 152.353 64.225C152.6 64.4537 152.759 64.8247 152.829 65.338H149.497C149.698 64.3673 150.3 63.882 151.303 63.882Z" fill="#B4BCD0"/>
<defs>
<clipPath id="clip0">
<rect width="90" height="46" fill="white" transform="translate(33)"/>
</clipPath>
</defs>
</svg>
