<svg width="28" height="37" viewBox="0 0 28 37" fill="none" xmlns="http://www.w3.org/2000/svg">
<path fill-rule="evenodd" clip-rule="evenodd" d="M8.62368 24.6851C8.39482 24.4455 7.3434 23.3591 6.93057 22.904C6.6252 22.5673 6.57147 22.2749 6.57147 22.1155C6.57147 21.6352 6.95563 21.2469 7.43156 21.2469C7.58552 21.2469 7.72232 21.288 7.84399 21.3577C7.5011 21.152 7.22026 21.0675 6.70801 21.1024C5.69906 21.1712 4.9735 21.696 4.55129 22.0465C3.41679 22.9884 1.64717 24.4961 0.640093 25.4574C-0.11039 26.1737 -0.170954 27.1884 0.302034 27.8016C0.635136 28.2334 1.76455 29.582 2.22856 30.1358C3.11169 31.1895 4.35821 32.1349 5.92858 32.1349C8.12577 32.1349 9.92728 30.4337 10.1145 28.2657C10.1267 28.1437 10.1346 28.0178 10.1346 27.891C10.1346 26.8209 9.68877 25.8186 8.62368 24.6851Z" fill="#FAB800"/>
<path fill-rule="evenodd" clip-rule="evenodd" d="M23.3844 28.6593C21.7305 30.3291 19.0506 30.3291 17.3966 28.6593L3.24957 14.38C1.59666 12.7137 1.59666 10.0075 3.24957 8.34001C4.90235 6.67182 7.58137 6.67182 9.23616 8.34001L23.3844 22.617C25.0352 24.2855 25.0352 26.9916 23.3844 28.6593Z" fill="white"/>
<path fill-rule="evenodd" clip-rule="evenodd" d="M20.5465 15.0497C20.6742 15.1964 21.0525 15.6364 21.0525 15.6364C21.141 15.7462 21.2186 15.8666 21.2919 15.9918C21.3633 16.1192 21.4117 16.2644 21.4117 16.4214C21.4117 16.9026 21.0253 17.2919 20.5507 17.2919C20.3995 17.2919 20.2609 17.2481 20.1391 17.1813C20.4821 17.3859 20.7659 17.4696 21.2749 17.4362C22.1099 17.3833 23.1722 16.6889 23.4336 16.4919C24.5998 15.6004 26.1035 14.2902 27.345 13.08L27.3479 13.0633C27.7414 12.7512 27.9999 12.2712 27.9999 11.7283C27.9999 11.3112 27.8399 11.0411 27.6819 10.7368C27.6819 10.7368 27.1623 9.90134 26.9416 9.60114C26.0314 8.36311 24.8119 7.59961 23.2395 7.59961C21.0446 7.59961 18.9528 9.35867 19.0513 11.5323C19.1264 13.1897 19.8996 14.3033 20.5465 15.0497Z" fill="#FAB800"/>
<path fill-rule="evenodd" clip-rule="evenodd" d="M20.3104 17.1824C20.5146 17.143 20.6355 16.9007 20.5396 16.6768C20.4388 16.4415 19.7857 15.7227 19.7857 15.7227C18.6999 14.467 18.1111 13.1152 18.0414 11.5781C17.9877 10.3925 18.4371 9.17438 19.3 8.26199C19.9559 7.56921 20.8499 7.14446 21.848 6.88455L16.2551 1.25307C14.6023 -0.417689 11.9234 -0.417689 10.2694 1.25307C8.61771 2.91909 8.61771 5.62326 10.2694 7.29253L19.7804 16.8681C20.0481 17.1594 20.1877 17.2058 20.3104 17.1824Z" fill="white"/>
<path fill-rule="evenodd" clip-rule="evenodd" d="M16.3705 29.7078C16.3417 29.6787 8.3824 21.6534 8.27373 21.5358C8.15904 21.4115 8.02438 21.25 7.83464 21.2961C7.45907 21.3874 7.55929 21.8103 7.70722 22.0533C7.8727 22.325 8.13519 22.5167 8.35105 22.7439C8.63202 23.0394 8.91474 23.3332 9.19693 23.6274C9.19693 23.6274 9.45379 23.8957 9.45875 23.9007C10.6791 25.1986 11.2478 26.4405 11.2478 27.8088C11.2478 27.9694 11.2377 28.1302 11.2227 28.2838C11.0323 30.4944 9.51864 32.2482 7.50342 32.8404L10.387 35.7508C12.0389 37.4168 14.7187 37.4168 16.3705 35.7508C18.0245 34.0802 18.0245 31.3769 16.3705 29.7078Z" fill="white"/>
</svg>
