<svg width="33" height="42" viewBox="0 0 33 42" fill="none" xmlns="http://www.w3.org/2000/svg">
<path fill-rule="evenodd" clip-rule="evenodd" d="M11.305 26.9724C11.0846 26.7404 10.072 25.6887 9.67443 25.2482C9.38035 24.9222 9.32861 24.6392 9.32861 24.4849C9.32861 24.0199 9.69856 23.644 10.1569 23.644C10.3052 23.644 10.4369 23.6838 10.5541 23.7513C10.2239 23.5521 9.95341 23.4703 9.4601 23.5041C8.48843 23.5707 7.78969 24.0788 7.38308 24.4181C6.29051 25.3299 4.58629 26.7894 3.61644 27.72C2.89369 28.4135 2.83536 29.3957 3.29087 29.9893C3.61166 30.4073 4.69933 31.7129 5.14619 32.249C5.99669 33.269 7.19714 34.1842 8.70948 34.1842C10.8255 34.1842 12.5604 32.5374 12.7407 30.4386C12.7524 30.3205 12.76 30.1987 12.76 30.0759C12.76 29.04 12.3307 28.0697 11.305 26.9724Z" fill="#FAB400"/>
<path fill-rule="evenodd" clip-rule="evenodd" d="M25.5202 30.8195C23.9275 32.4359 21.3466 32.4359 19.7537 30.8195L6.12954 16.9964C4.53771 15.3833 4.53771 12.7636 6.12954 11.1493C7.72123 9.53445 10.3012 9.53445 11.8949 11.1493L25.5202 24.9702C27.11 26.5855 27.11 29.2051 25.5202 30.8195Z" fill="#4E277A"/>
<path fill-rule="evenodd" clip-rule="evenodd" d="M22.7872 17.6448C22.9101 17.7868 23.2744 18.2128 23.2744 18.2128C23.3597 18.3191 23.4344 18.4356 23.505 18.5568C23.5738 18.6801 23.6204 18.8207 23.6204 18.9727C23.6204 19.4385 23.2482 19.8154 22.7912 19.8154C22.6456 19.8154 22.5121 19.773 22.3948 19.7083C22.7251 19.9064 22.9984 19.9874 23.4886 19.9551C24.2928 19.9039 25.3158 19.2317 25.5676 19.0409C26.6906 18.178 28.1388 16.9096 29.3343 15.7381L29.3372 15.7219C29.7162 15.4197 29.9651 14.9551 29.9651 14.4295C29.9651 14.0258 29.811 13.7642 29.6589 13.4697C29.6589 13.4697 29.1585 12.6609 28.9459 12.3703C28.0694 11.1719 26.8949 10.4327 25.3806 10.4327C23.2668 10.4327 21.2524 12.1356 21.3472 14.2398C21.4195 15.8443 22.1642 16.9223 22.7872 17.6448Z" fill="#FAB400"/>
<path fill-rule="evenodd" clip-rule="evenodd" d="M22.5597 19.7093C22.7563 19.6712 22.8727 19.4367 22.7803 19.2199C22.6833 18.9921 22.0544 18.2963 22.0544 18.2963C21.0086 17.0807 20.4416 15.7721 20.3745 14.2841C20.3228 13.1364 20.7556 11.9572 21.5866 11.0739C22.2183 10.4033 23.0792 9.99209 24.0404 9.74048L18.6542 4.2889C17.0625 2.67152 14.4826 2.67152 12.8898 4.2889C11.2991 5.9017 11.2991 8.51949 12.8898 10.1354L22.0492 19.4051C22.307 19.6871 22.4415 19.732 22.5597 19.7093Z" fill="#4E277A"/>
<path fill-rule="evenodd" clip-rule="evenodd" d="M18.7657 31.8343C18.7379 31.8062 11.0728 24.0373 10.9681 23.9234C10.8576 23.8031 10.728 23.6468 10.5452 23.6914C10.1835 23.7798 10.2801 24.1891 10.4225 24.4244C10.5819 24.6873 10.8347 24.873 11.0426 25.0929C11.3132 25.3789 11.5854 25.6634 11.8572 25.9481C11.8572 25.9481 12.1045 26.2079 12.1093 26.2127C13.2846 27.4692 13.8323 28.6714 13.8323 29.996C13.8323 30.1515 13.8226 30.3071 13.8081 30.4559C13.6248 32.5958 12.167 34.2936 10.2263 34.8668L13.0033 37.6843C14.5941 39.297 17.1749 39.297 18.7657 37.6843C20.3585 36.067 20.3585 33.4501 18.7657 31.8343Z" fill="#4E277A"/>
</svg>
