<svg width="138" height="37" viewBox="0 0 138 37" fill="none" xmlns="http://www.w3.org/2000/svg">
<path fill-rule="evenodd" clip-rule="evenodd" d="M8.62368 24.6851C8.39482 24.4455 7.3434 23.3591 6.93057 22.904C6.6252 22.5673 6.57147 22.2749 6.57147 22.1155C6.57147 21.6352 6.95563 21.2469 7.43156 21.2469C7.58552 21.2469 7.72232 21.288 7.84399 21.3577C7.5011 21.152 7.22026 21.0675 6.70801 21.1024C5.69906 21.1712 4.9735 21.696 4.55129 22.0465C3.41679 22.9884 1.64717 24.4961 0.640093 25.4574C-0.11039 26.1737 -0.170954 27.1884 0.302034 27.8016C0.635136 28.2334 1.76455 29.582 2.22856 30.1358C3.11169 31.1895 4.35821 32.1349 5.92858 32.1349C8.12577 32.1349 9.92728 30.4337 10.1145 28.2657C10.1267 28.1437 10.1346 28.0178 10.1346 27.891C10.1346 26.8209 9.68877 25.8186 8.62368 24.6851Z" fill="#FAB800"/>
<path fill-rule="evenodd" clip-rule="evenodd" d="M23.3844 28.6593C21.7305 30.3291 19.0506 30.3291 17.3966 28.6593L3.24957 14.38C1.59666 12.7137 1.59666 10.0075 3.24957 8.34001C4.90235 6.67182 7.58137 6.67182 9.23616 8.34001L23.3844 22.617C25.0352 24.2855 25.0352 26.9916 23.3844 28.6593Z" fill="white"/>
<path fill-rule="evenodd" clip-rule="evenodd" d="M20.5465 15.0497C20.6742 15.1964 21.0525 15.6364 21.0525 15.6364C21.141 15.7462 21.2186 15.8666 21.2919 15.9918C21.3633 16.1192 21.4117 16.2644 21.4117 16.4214C21.4117 16.9026 21.0253 17.2919 20.5507 17.2919C20.3995 17.2919 20.2609 17.2481 20.1391 17.1813C20.4821 17.3859 20.7659 17.4696 21.2749 17.4362C22.1099 17.3833 23.1722 16.6889 23.4336 16.4919C24.5998 15.6004 26.1035 14.2902 27.345 13.08L27.3479 13.0633C27.7414 12.7512 27.9999 12.2712 27.9999 11.7283C27.9999 11.3112 27.8399 11.0411 27.6819 10.7368C27.6819 10.7368 27.1623 9.90134 26.9416 9.60114C26.0314 8.36311 24.8119 7.59961 23.2395 7.59961C21.0446 7.59961 18.9528 9.35867 19.0513 11.5323C19.1264 13.1897 19.8996 14.3033 20.5465 15.0497Z" fill="#FAB800"/>
<path fill-rule="evenodd" clip-rule="evenodd" d="M20.3104 17.1824C20.5146 17.143 20.6355 16.9007 20.5396 16.6768C20.4388 16.4415 19.7857 15.7227 19.7857 15.7227C18.6999 14.467 18.1111 13.1152 18.0414 11.5781C17.9877 10.3925 18.4371 9.17438 19.3 8.26199C19.9559 7.56921 20.8499 7.14446 21.848 6.88455L16.2551 1.25307C14.6023 -0.417689 11.9234 -0.417689 10.2694 1.25307C8.61771 2.91909 8.61771 5.62326 10.2694 7.29253L19.7804 16.8681C20.0481 17.1594 20.1877 17.2058 20.3104 17.1824Z" fill="white"/>
<path fill-rule="evenodd" clip-rule="evenodd" d="M16.3705 29.7078C16.3417 29.6787 8.3824 21.6534 8.27373 21.5358C8.15904 21.4115 8.02438 21.25 7.83464 21.2961C7.45907 21.3874 7.55929 21.8103 7.70722 22.0533C7.8727 22.325 8.13519 22.5167 8.35105 22.7439C8.63202 23.0394 8.91474 23.3332 9.19693 23.6274C9.19693 23.6274 9.45379 23.8957 9.45875 23.9007C10.6791 25.1986 11.2478 26.4405 11.2478 27.8088C11.2478 27.9694 11.2377 28.1302 11.2227 28.2838C11.0323 30.4944 9.51864 32.2482 7.50342 32.8404L10.387 35.7508C12.0389 37.4168 14.7187 37.4168 16.3705 35.7508C18.0245 34.0802 18.0245 31.3769 16.3705 29.7078Z" fill="white"/>
<path fill-rule="evenodd" clip-rule="evenodd" d="M105.762 25.6971V25.768C105.762 26.3563 105.287 26.8336 104.7 26.8336H96.9758C96.3887 26.8336 95.9128 26.3563 95.9128 25.768V11.3196C95.9128 10.731 96.3887 10.2539 96.9758 10.2539H104.581C105.168 10.2539 105.644 10.731 105.644 11.3196V11.4151C105.644 12.0038 105.168 12.4809 104.581 12.4809H98.3707C98.2656 12.4809 98.1804 12.5663 98.1804 12.6716V17.3821C98.1804 17.4875 98.2656 17.573 98.3707 17.573H103.046C103.633 17.573 104.108 18.0501 104.108 18.6385V18.7086C104.108 19.2973 103.633 19.7744 103.046 19.7744H98.3707C98.2656 19.7744 98.1804 19.8597 98.1804 19.9649V24.4408C98.1804 24.5461 98.2656 24.6315 98.3707 24.6315H104.7C105.287 24.6315 105.762 25.1085 105.762 25.6971Z" fill="#FAB800"/>
<path fill-rule="evenodd" clip-rule="evenodd" d="M115.488 21.5103V20.515C115.23 18.6917 113.716 17.2949 111.899 17.2949C109.914 17.2949 108.285 18.9754 108.285 20.9884C108.285 23.0497 109.914 24.7302 111.899 24.7302C113.716 24.7302 115.23 23.3338 115.488 21.5103ZM117.638 16.0862V25.8207C117.638 26.4091 117.162 26.8864 116.575 26.8864H116.551C115.964 26.8864 115.488 26.4091 115.488 25.8207V25.5606C114.52 26.3894 113.293 26.8864 111.899 26.8864C108.781 26.8864 106.23 24.2816 106.23 20.9884C106.23 17.7687 108.781 15.139 111.899 15.139C113.293 15.139 114.52 15.6363 115.488 16.4651V16.0862C115.488 15.4976 115.964 15.0205 116.551 15.0205H116.575C117.162 15.0205 117.638 15.4976 117.638 16.0862Z" fill="#FAB800"/>
<path fill-rule="evenodd" clip-rule="evenodd" d="M136.938 26.8376H136.916C136.329 26.8376 135.853 26.3606 135.853 25.7718V20.8182C135.853 19.7472 135.431 18.6875 134.601 18.0137C134.005 17.5295 133.261 17.2464 132.451 17.2464C131.694 17.2464 131.021 17.4829 130.47 17.8972C129.633 18.5245 129.214 19.5693 129.214 20.6166V25.7963C129.214 26.3846 128.738 26.8619 128.151 26.8619H128.129C127.542 26.8619 127.066 26.3846 127.066 25.7963V16.0862C127.066 15.4976 127.542 15.0205 128.129 15.0205H128.151C128.738 15.0205 129.214 15.4976 129.214 16.0862V16.3081C130.049 15.5042 131.246 15.0205 132.451 15.0205C135.403 15.0205 137.742 17.5068 138 20.5383V25.7718C138 26.3606 137.524 26.8376 136.938 26.8376Z" fill="#FAB800"/>
<path fill-rule="evenodd" clip-rule="evenodd" d="M124.166 15.2924C123.287 15.5043 122.576 15.7935 121.808 16.5736V16.0862C121.808 15.4977 121.332 15.0205 120.745 15.0205C120.158 15.0205 119.682 15.4977 119.682 16.0862V25.8207C119.682 26.4094 120.158 26.8864 120.745 26.8864C121.332 26.8864 121.808 26.4094 121.808 25.8207V20.9411C121.961 19.3092 122.931 17.8953 124.384 17.413C124.384 17.413 125.436 17.2148 125.47 16.3104C125.495 15.6054 124.85 15.1275 124.166 15.2924Z" fill="#FAB800"/>
<path fill-rule="evenodd" clip-rule="evenodd" d="M51.2135 16.9669C52.6708 17.5041 53.7348 18.1617 54.4076 18.9437C55.1094 19.7543 55.4617 20.7427 55.4617 21.9047C55.4617 23.3143 54.9643 24.4823 53.9733 25.4091C52.7886 26.5102 51.0753 27.0615 48.832 27.0615C48.062 27.0615 47.287 26.989 46.5385 26.8027C45.8465 26.6303 45.0399 26.3844 44.5945 25.7886C44.1845 25.2406 44.1363 24.4278 44.4808 23.8353C44.8815 23.1462 45.7446 22.9349 46.4881 23.0237C47.8268 23.1837 49.3186 24.0553 50.6059 23.1684C51.277 22.728 51.2581 21.6812 50.6743 21.1947C50.3083 20.8962 49.6667 20.5847 48.7529 20.2637C45.7358 19.1841 44.2269 17.5448 44.2269 15.3484C44.2269 13.8654 44.807 12.6619 45.9689 11.7448C47.1203 10.8172 48.6299 10.355 50.4906 10.355C50.5901 10.355 50.6896 10.3571 50.7889 10.3607C51.7821 10.3978 52.9167 10.5496 53.7594 11.1184C55.3827 12.2139 54.0357 14.6289 52.2418 14.1315C51.2006 13.8428 49.2156 13.3138 48.5469 14.5795C48.2632 15.1167 48.5109 15.8044 48.9967 16.1303C49.3491 16.3669 50.1671 16.5706 51.2135 16.9669Z" fill="white"/>
<path fill-rule="evenodd" clip-rule="evenodd" d="M69.4936 13.6808C69.0789 14.0945 68.5658 14.3017 67.9514 14.3017C67.3383 14.3017 66.8164 14.0855 66.3891 13.6578C65.9767 13.2432 65.7709 12.7486 65.7709 12.1706C65.7709 11.5901 65.9767 11.0989 66.3891 10.6928C66.8164 10.2639 67.3383 10.0508 67.9514 10.0508C68.5658 10.0508 69.0834 10.2639 69.5025 10.6928C69.9238 11.0989 70.1333 11.5901 70.1333 12.1706C70.1333 12.7486 69.9192 13.252 69.4936 13.6808Z" fill="white"/>
<path fill-rule="evenodd" clip-rule="evenodd" d="M62.4964 15.0513H61.5875V14.1765C61.5875 13.0387 60.6381 12.1233 59.4901 12.1835C58.414 12.2401 57.6068 13.2086 57.6068 14.2894V15.0513H57.2564C56.4284 15.0513 55.7573 15.7243 55.7573 16.5543V16.6116C55.7573 17.4417 56.4284 18.1146 57.2564 18.1146H57.6068V21.0676C57.614 22.3603 57.7646 23.5696 58.086 24.4501C58.2509 24.9018 58.5024 25.4523 58.9673 25.8864C60.1487 26.9893 62.4369 27.5436 63.2058 25.6672C63.5555 24.8137 63.2093 24.0505 62.501 23.5404C62.323 23.4122 62.1481 23.2802 62.017 23.0999C61.6384 22.5788 61.5683 21.8668 61.5716 21.2423L61.5865 18.1146H62.4964C63.3243 18.1146 63.9955 17.4417 63.9955 16.6116V16.5543C63.9955 15.7243 63.3243 15.0513 62.4964 15.0513Z" fill="white"/>
<path fill-rule="evenodd" clip-rule="evenodd" d="M77.9684 27.0442C76.2229 27.0442 74.8237 26.5544 73.6913 25.5478C72.2898 24.3 71.6376 22.7946 71.6376 20.8098C71.6376 19.0164 72.2906 17.4394 73.4756 16.3702C74.6825 15.2816 75.9141 14.8174 77.5958 14.8174C77.8257 14.8174 78.0624 14.8257 78.3073 14.8415C78.741 14.8693 80.9172 15.0855 81.1868 16.6317C81.296 17.2595 81.0134 17.8208 80.4671 18.0619C80.2761 18.1463 80.0703 18.187 79.8358 18.187C79.5367 18.187 79.2383 18.1207 78.9507 18.0573C78.6854 17.9986 78.435 17.9427 78.2029 17.9427C77.214 17.9427 76.5798 18.2012 76.0141 18.8342C75.4865 19.4249 75.2792 20.2371 75.3617 21.3893C75.4804 23.0341 76.7812 23.9217 77.9452 23.9217C78.1624 23.9217 78.3788 23.8923 78.5877 23.8352C78.6306 23.823 78.6906 23.8035 78.7635 23.7801C79.0445 23.6888 79.5163 23.5351 79.9223 23.5201H79.9251C80.5879 23.5201 81.0817 23.8501 81.3116 24.4025C81.5387 24.9479 81.4366 25.553 81.0509 25.944C80.3649 26.6388 79.0806 27.0223 78.1668 27.0419L77.9684 27.0442Z" fill="white"/>
<path fill-rule="evenodd" clip-rule="evenodd" d="M91.5408 26.8928C91.014 26.8928 90.5293 26.6516 90.21 26.2319L87.1728 22.2309C87.1367 22.1835 87.0817 22.1533 87.0172 22.1458L87.0126 22.1449C86.9383 22.1449 86.8842 22.1684 86.8443 22.2082L86.6964 22.359L86.6774 25.1861C86.6774 26.1274 85.914 26.8928 84.9755 26.8928H84.5659C83.6281 26.8928 82.8646 26.1274 82.8646 25.1861V11.7574C82.8646 10.8163 83.6281 10.0508 84.5659 10.0508H84.9755C85.914 10.0508 86.6774 10.8163 86.6774 11.7574V17.1003C86.6774 17.1178 86.709 17.1592 86.721 17.172C86.7339 17.1841 86.7752 17.2157 86.7924 17.2157C86.8225 17.2157 86.851 17.2045 86.8728 17.1826L89.9613 14.0857C90.2768 13.7686 90.6962 13.5945 91.1418 13.5945C91.5874 13.5945 92.0067 13.7686 92.3223 14.0857L92.4531 14.2169C92.7695 14.5332 92.943 14.9537 92.943 15.4005C92.943 15.8482 92.7695 16.2687 92.4538 16.5843L89.6713 19.3737C89.5954 19.4506 89.587 19.5741 89.6517 19.6608L93.0152 24.0914C93.2849 24.447 93.4015 24.887 93.3421 25.3301C93.282 25.7739 93.0535 26.1671 92.6981 26.4384L92.55 26.5507C92.2576 26.7744 91.9083 26.8928 91.5408 26.8928Z" fill="white"/>
<path fill-rule="evenodd" clip-rule="evenodd" d="M67.9849 27.0542C66.8758 27.0542 65.9733 26.1494 65.9733 25.0372V17.3419C65.9733 16.2298 66.8758 15.3247 67.9849 15.3247H68.1929C69.3021 15.3247 70.2047 16.2298 70.2047 17.3419V25.0372C70.2047 26.1494 69.3021 27.0542 68.1929 27.0542H67.9849Z" fill="white"/>
</svg>
